<svg xmlns="http://www.w3.org/2000/svg" xmlns:xlink="http://www.w3.org/1999/xlink" style="display:none"><symbol  viewBox='0 0 24 24' id='ic_cast_connected_white_24px'>
    
    <path d="M0 0h24v24H0z" fill="none" opacity=".1"></path>
    <path d="M0 0h24v24H0z" fill="none"></path>
    <path d="M1 18v3h3c0-1.66-1.34-3-3-3zm0-4v2c2.76 0 5 2.24 5 5h2c0-3.87-3.13-7-7-7zm18-7H5v1.63c3.96 1.28 7.09 4.41 8.37 8.37H19V7zM1 10v2c4.97 0 9 4.03 9 9h2c0-6.08-4.93-11-11-11zm20-7H3c-1.1 0-2 .9-2 2v3h2V5h18v14h-7v2h7c1.1 0 2-.9 2-2V5c0-1.1-.9-2-2-2z"></path>

  </symbol><symbol  viewBox='0 0 24 24' id='ic_cast_white_24px'>
    
    <path d="M0 0h24v24H0z" fill="none" opacity=".1"></path>
    <path d="M0 0h24v24H0z" fill="none"></path>
    <path d="M21 3H3c-1.1 0-2 .9-2 2v3h2V5h18v14h-7v2h7c1.1 0 2-.9 2-2V5c0-1.1-.9-2-2-2zM1 18v3h3c0-1.66-1.34-3-3-3zm0-4v2c2.76 0 5 2.24 5 5h2c0-3.87-3.13-7-7-7zm0-4v2c4.97 0 9 4.03 9 9h2c0-6.08-4.93-11-11-11z"></path>

  </symbol><symbol  viewBox='0 0 24 24' id='ic_fullscreen_exit_white_24px'>
    
    <path d="M0 0h24v24H0z" fill="none"></path>
    <path d="M5 16h3v3h2v-5H5v2zm3-8H5v2h5V5H8v3zm6 11h2v-3h3v-2h-5v5zm2-11V5h-2v5h5V8h-3z"></path>

  </symbol><symbol  viewBox='0 0 24 24' id='ic_fullscreen_white_24px'>
    
    <path d="M0 0h24v24H0z" fill="none"></path>
    <path d="M7 14H5v5h5v-2H7v-3zm-2-4h2V7h3V5H5v5zm12 7h-3v2h5v-5h-2v3zM14 5v2h3v3h2V5h-5z"></path>

  </symbol><symbol  viewBox='0 0 24 24' id='ic_pause_white_24px'>
    
    <path d="M6 19h4V5H6v14zm8-14v14h4V5h-4z"></path>
    <path d="M0 0h24v24H0z" fill="none"></path>

  </symbol><symbol  viewBox='0 0 24 24' id='ic_play_arrow_white_24px'>
    
    <path d="M8 5v14l11-7z"></path>
    <path d="M0 0h24v24H0z" fill="none"></path>

  </symbol><symbol  viewBox='0 0 24 24' id='ic_volume_down_white_24px'>
    
    <path d="M18.5 12c0-1.77-1.02-3.29-2.5-4.03v8.05c1.48-.73 2.5-2.25 2.5-4.02zM5 9v6h4l5 5V4L9 9H5z"></path>
    <path d="M0 0h24v24H0z" fill="none"></path>

  </symbol><symbol  viewBox='0 0 24 24' id='ic_volume_mute_white_24px'>
    
    <path d="M7 9v6h4l5 5V4l-5 5H7z"></path>
    <path d="M0 0h24v24H0z" fill="none"></path>

  </symbol><symbol  viewBox='0 0 24 24' id='ic_volume_off_white_24px'>
    
    <path d="M16.5 12c0-1.77-1.02-3.29-2.5-4.03v2.21l2.45 2.45c.03-.2.05-.41.05-.63zm2.5 0c0 .94-.2 1.82-.54 2.64l1.51 1.51C20.63 14.91 21 13.5 21 12c0-4.28-2.99-7.86-7-8.77v2.06c2.89.86 5 3.54 5 6.71zM4.27 3L3 4.27 7.73 9H3v6h4l5 5v-6.73l4.25 4.25c-.67.52-1.42.93-2.25 1.18v2.06c1.38-.31 2.63-.95 3.69-1.81L19.73 21 21 19.73l-9-9L4.27 3zM12 4L9.91 6.09 12 8.18V4z"></path>
    <path d="M0 0h24v24H0z" fill="none"></path>

  </symbol><symbol  viewBox='0 0 24 24' id='ic_volume_up_white_24px'>
    
    <path d="M3 9v6h4l5 5V4L7 9H3zm13.5 3c0-1.77-1.02-3.29-2.5-4.03v8.05c1.48-.73 2.5-2.25 2.5-4.02zM14 3.23v2.06c2.89.86 5 3.54 5 6.71s-2.11 5.85-5 6.71v2.06c4.01-.91 7-4.49 7-8.77s-2.99-7.86-7-8.77z"></path>
    <path d="M0 0h24v24H0z" fill="none"></path>

  </symbol></svg>